0
SECTION
2
HEADER
9
$INSUNITS
70
4
9
$ACADVER
1
AC1014
9
$HANDSEED
5
FFFF
0
ENDSEC
0
SECTION
2
TABLES
0
TABLE
2
VPORT
5
8
100
AcDbSymbolTable
0
ENDTAB
0
TABLE
2
LTYPE
5
5
100
AcDbSymbolTable
0
LTYPE
5
14
100
AcDbSymbolTableRecord
100
AcDbLinetypeTableRecord
2
BYBLOCK
70
0
0
LTYPE
5
15
100
AcDbSymbolTableRecord
100
AcDbLinetypeTableRecord
2
BYLAYER
70
0
0
ENDTAB
0
TABLE
2
LAYER
5
2
100
AcDbSymbolTable
70
2
0
LAYER
5
50
100
AcDbSymbolTableRecord
100
AcDbLayerTableRecord
2
0
70
0
6
CONTINUOUS
0
ENDTAB
0
TABLE
2
STYLE
5
3
100
AcDbSymbolTable
70
1
0
STYLE
5
11
100
AcDbSymbolTableRecord
100
AcDbTextStyleTableRecord
2
STANDARD
70
0
0
ENDTAB
0
TABLE
2
VIEW
5
6
100
AcDbSymbolTable
70
0
0
ENDTAB
0
TABLE
2
UCS
5
7
100
AcDbSymbolTable
70
0
0
ENDTAB
0
TABLE
2
APPID
5
9
100
AcDbSymbolTable
70
2
0
APPID
5
12
100
AcDbSymbolTableRecord
100
AcDbRegAppTableRecord
2
ACAD
70
0
0
ENDTAB
0
TABLE
2
DIMSTYLE
5
A
100
AcDbSymbolTable
70
1
0
ENDTAB
0
TABLE
2
BLOCK_RECORD
5
1
100
AcDbSymbolTable
70
1
0
BLOCK_RECORD
5
1F
100
AcDbSymbolTableRecord
100
AcDbBlockTableRecord
2
*MODEL_SPACE
0
BLOCK_RECORD
5
1B
100
AcDbSymbolTableRecord
100
AcDbBlockTableRecord
2
*PAPER_SPACE
0
ENDTAB
0
ENDSEC
0
SECTION
2
BLOCKS
0
BLOCK
5
20
100
AcDbEntity
100
AcDbBlockBegin
2
*MODEL_SPACE
0
ENDBLK
5
21
100
AcDbEntity
100
AcDbBlockEnd
0
BLOCK
5
1C
100
AcDbEntity
100
AcDbBlockBegin
2
*PAPER_SPACE
0
ENDBLK
5
1D
100
AcDbEntity
100
AcDbBlockEnd
0
ENDSEC
0
SECTION
2
ENTITIES
0
SPLINE
5
100
100
AcDbEntity
8
0
100
AcDbSpline
70
1064
71
3
72
12
73
8
74
0
42
0.000000001
43
0.0000000001
44
0.0000000001
40
0
40
0
40
0
40
0
40
3.6164291980228773
40
3.6164291980228773
40
5.9329028781166384
40
5.9329028781166384
40
8.3756914733073788
40
8.3756914733073788
40
8.3756914733073788
40
8.3756914733073788
10
-80
20
240
30
0
10
-86.642052863589157
20
229.94015563271029
30
0
10
-94.772888015460609
20
221.16387397870307
30
0
10
-111.14682753557503
20
210.06933827124186
30
0
10
-118.03396738348438
20
206.74305017633984
30
0
10
-133.13012751243807
20
201.86071992582029
30
0
10
-141.15361443827959
20
200.48789279239151
30
0
10
-149.28203230275508
20
200
30
0
0
LINE
5
101
100
AcDbEntity
8
0
100
AcDbLine
10
-149.28203230275508
20
200.00000000000003
30
0
11
-149.28203230275511
21
120
31
0
0
SPLINE
5
102
100
AcDbEntity
8
0
100
AcDbSpline
70
1064
71
3
72
12
73
8
74
0
42
0.000000001
43
0.0000000001
44
0.0000000001
40
0
40
0
40
0
40
0
40
3.6164291980228813
40
3.6164291980228813
40
5.9329028781166411
40
5.9329028781166411
40
8.3756914733073664
40
8.3756914733073664
40
8.3756914733073664
40
8.3756914733073664
10
-149.28203230275511
20
120.00000000000001
30
0
10
-137.2489250907698
20
119.27773567049749
30
0
10
-125.58302465169658
20
116.62436670199691
30
0
10
-107.78790512578445
20
107.99138697127844
30
0
10
-101.46368521133887
20
103.69009295102389
30
0
10
-89.687383120246778
20
93.057599905011955
30
0
10
-84.486736484772123
20
86.795469967015265
30
0
10
-80.000000000000028
20
80
30
0
0
LINE
5
103
100
AcDbEntity
8
0
100
AcDbLine
10
-80.000000000000014
20
80.000000000000014
30
0
11
-10.71796769724493
21
119.99999999999997
31
0
0
SPLINE
5
104
100
AcDbEntity
8
0
100
AcDbSpline
70
1064
71
3
72
12
73
8
74
0
42
0.000000001
43
0.0000000001
44
0.0000000001
40
0
40
0
40
0
40
0
40
3.6164291980228676
40
3.6164291980228676
40
5.9329028781166233
40
5.9329028781166233
40
8.3756914733073451
40
8.3756914733073451
40
8.3756914733073451
40
8.3756914733073451
10
-10.71796769724493
20
119.99999999999997
30
0
10
-16.109022045641048
20
130.78210869679219
30
0
10
-19.644087332842854
20
142.21175931929994
30
0
10
-21.065267338640581
20
161.93927475747961
30
0
10
-20.502347405176806
20
169.56685687263621
30
0
10
-17.182489367315128
20
185.0816801691677
30
0
10
-14.359649076948289
20
192.71663724059317
30
0
10
-10.717967697244877
20
199.99999999999994
30
0
0
LINE
5
105
100
AcDbEntity
8
0
100
AcDbLine
10
-10.717967697244877
20
199.99999999999994
30
0
11
-80
21
240
31
0
0
LWPOLYLINE
5
106
100
AcDbEntity
8
0
100
AcDbPolyline
90
4
70
1
43
0.0
10
-81.935723628880638
20
228.64722832536717
10
-83.935723628880638
20
225.1831267102294
10
-21.581894556400965
20
189.18312671022954
10
-19.581894556400865
20
192.64722832536737
0
LWPOLYLINE
5
107
100
AcDbEntity
8
0
100
AcDbPolyline
90
4
70
1
43
0.0
10
-138.4818001217125
20
124.00000000000007
10
-134.4818001217125
20
124.00000000000007
10
-134.48180012171247
20
196
10
-138.48180012171255
20
196
0
LWPOLYLINE
5
108
100
AcDbEntity
8
0
100
AcDbPolyline
90
4
70
1
43
0.0
10
-83.935694528610355
20
94.816822886623839
10
-81.935694528610441
20
91.352721271486274
10
-19.581865456130618
20
127.35272127148579
10
-21.581865456130593
20
130.81682288662358
0
ENDSEC
0
SECTION
2
OBJECTS
0
DICTIONARY
5
C
100
AcDbDictionary
3
ACAD_GROUP
350
D
3
ACAD_MLINESTYLE
350
17
0
DICTIONARY
5
D
100
AcDbDictionary
0
DICTIONARY
5
1A
330
C
100
AcDbDictionary
0
DICTIONARY
5
17
100
AcDbDictionary
0
ENDSEC
0
EOF
