0
SECTION
2
HEADER
9
$INSUNITS
70
4
9
$ACADVER
1
AC1014
9
$HANDSEED
5
FFFF
0
ENDSEC
0
SECTION
2
TABLES
0
TABLE
2
VPORT
5
8
100
AcDbSymbolTable
0
ENDTAB
0
TABLE
2
LTYPE
5
5
100
AcDbSymbolTable
0
LTYPE
5
14
100
AcDbSymbolTableRecord
100
AcDbLinetypeTableRecord
2
BYBLOCK
70
0
0
LTYPE
5
15
100
AcDbSymbolTableRecord
100
AcDbLinetypeTableRecord
2
BYLAYER
70
0
0
ENDTAB
0
TABLE
2
LAYER
5
2
100
AcDbSymbolTable
70
2
0
LAYER
5
50
100
AcDbSymbolTableRecord
100
AcDbLayerTableRecord
2
0
70
0
6
CONTINUOUS
0
ENDTAB
0
TABLE
2
STYLE
5
3
100
AcDbSymbolTable
70
1
0
STYLE
5
11
100
AcDbSymbolTableRecord
100
AcDbTextStyleTableRecord
2
STANDARD
70
0
0
ENDTAB
0
TABLE
2
VIEW
5
6
100
AcDbSymbolTable
70
0
0
ENDTAB
0
TABLE
2
UCS
5
7
100
AcDbSymbolTable
70
0
0
ENDTAB
0
TABLE
2
APPID
5
9
100
AcDbSymbolTable
70
2
0
APPID
5
12
100
AcDbSymbolTableRecord
100
AcDbRegAppTableRecord
2
ACAD
70
0
0
ENDTAB
0
TABLE
2
DIMSTYLE
5
A
100
AcDbSymbolTable
70
1
0
ENDTAB
0
TABLE
2
BLOCK_RECORD
5
1
100
AcDbSymbolTable
70
1
0
BLOCK_RECORD
5
1F
100
AcDbSymbolTableRecord
100
AcDbBlockTableRecord
2
*MODEL_SPACE
0
BLOCK_RECORD
5
1B
100
AcDbSymbolTableRecord
100
AcDbBlockTableRecord
2
*PAPER_SPACE
0
ENDTAB
0
ENDSEC
0
SECTION
2
BLOCKS
0
BLOCK
5
20
100
AcDbEntity
100
AcDbBlockBegin
2
*MODEL_SPACE
0
ENDBLK
5
21
100
AcDbEntity
100
AcDbBlockEnd
0
BLOCK
5
1C
100
AcDbEntity
100
AcDbBlockBegin
2
*PAPER_SPACE
0
ENDBLK
5
1D
100
AcDbEntity
100
AcDbBlockEnd
0
ENDSEC
0
SECTION
2
ENTITIES
0
LWPOLYLINE
5
100
100
AcDbEntity
8
0
100
AcDbPolyline
90
36
70
1
43
0.0
10
-334.09053734283594
20
48.609180867189849
10
-316.40446193829814
20
58.820241262907786
10
-314.65596289921075
20
55.78887900604478
10
-312.4903864461445
20
57.037990140381822
10
-314.2393982464186
20
60.070241368227109
10
-298
20
69.446062317274439
10
-300
20
72.910163932412189
10
-245.5181998782875
20
41.455081966206066
10
-249.51819987828748
20
41.455081966206066
10
-249.51819987828753
20
22.705081966206073
10
-253.0181998782875
20
22.70508196620607
10
-253.01819987828748
20
20.205081966206073
10
-249.51819987828748
20
20.205081966206073
10
-249.51819987828748
20
-0.20508196620611097
10
-253.0181998782875
20
-0.20508196620611319
10
-253.0181998782875
20
-2.7050819662061132
10
-249.51819987828753
20
-2.705081966206111
10
-249.51819987828748
20
-21.455081966206109
10
-245.5181998782875
20
-21.455081966206112
10
-300.00000000000006
20
-52.910163932412182
10
-298
20
-49.446062317274425
10
-314.23939824641866
20
-40.070241368227109
10
-312.49038644614456
20
-37.037990140381808
10
-314.65596289921081
20
-35.788879006044773
10
-316.4044619382982
20
-38.820241262907764
10
-334.09053734283594
20
-28.609180867189821
10
-332.34875587863706
20
-25.568487395692824
10
-334.51805877541904
20
-24.325859156027608
10
-336.25561337773917
20
-27.359173635622458
10
-352.48180012171247
20
-17.99098035106832
10
-354.48180012171247
20
-21.455081966206073
10
-354.48180012171247
20
41.455081966206144
10
-352.48180012171247
20
37.990980351068387
10
-336.25561337773917
20
47.359173635622476
10
-334.51805877541904
20
44.325859156027676
10
-332.34875587863706
20
45.568487395692898
0
ENDSEC
0
SECTION
2
OBJECTS
0
DICTIONARY
5
C
100
AcDbDictionary
3
ACAD_GROUP
350
D
3
ACAD_MLINESTYLE
350
17
0
DICTIONARY
5
D
100
AcDbDictionary
0
DICTIONARY
5
1A
330
C
100
AcDbDictionary
0
DICTIONARY
5
17
100
AcDbDictionary
0
ENDSEC
0
EOF
